<svg width="600" height="400" xmlns="http://www.w3.org/2000/svg">

 <g>
  <title>background</title>
  <rect fill="none" id="canvas_background" height="402" width="602" y="-1" x="-1"/>
 </g>
 <g>
  <title>Layer 1</title>
  <g stroke="null" id="layer1">
   <g stroke="null" id="svg_1" fill="rgb(244,67,54)">
    <path stroke="null" id="svg_2" d="m390.67721,309.91876l0.28289,0.05616c-0.00281,0.01401 -0.00651,0.02599 -0.01052,0.0359l0,0l-0.27266,-0.09111l-0.00894,0c0,-0.00035 0.0002,-0.00058 0.00028,-0.00094l0.00895,0zm-37.60779,-35.15459c3.03756,0 8.21254,0.66633 9.7478,1.32713l0.00485,0.00215c0.16334,0.06685 0.33484,0.13766 0.58073,0.2393c0.31362,0.12953 0.73511,0.30371 1.1218,0.46184l-0.00012,0c0.32814,0.13435 0.74214,0.30228 1.04796,0.4237l0.00012,0c1.51884,0.62921 3.08334,1.54654 5.9208,3.50012l0.00012,0c3.23402,2.23657 8.01158,9.23809 9.09394,13.31719l0.00012,0c0.19735,0.81611 0.58501,2.1311 0.87915,2.97504l-0.00015,0c0.33665,1.10119 0.43624,2.50292 0.33955,5.9954l-0.00009,0.001c-0.09658,3.9328 -0.25611,4.89597 -1.01914,7.16976l-0.00011,0c-2.02005,5.95554 -5.12365,10.49587 -9.72881,14.1171l-0.00116,0.00087c-1.23225,0.97897 -2.30014,1.71959 -2.53334,1.79976l-0.00873,0c-0.01538,0.00157 -0.02919,0.00392 -0.04252,0.00641l-0.00127,0.00009c-0.27889,0.05387 -1.10104,0.48901 -1.86994,0.92957l-0.00312,0.0018c-0.84969,0.50012 -2.38159,1.16604 -3.42556,1.48046l-0.0002,0c-1.07346,0.29118 -2.21928,0.71216 -2.56781,0.88522l-0.00244,0.00142c-0.84423,0.42931 -3.65289,0.73213 -6.46582,0.73213c-1.22909,0 -2.43962,-0.05829 -3.44439,-0.18413l-0.00292,-0.00037l-0.00711,-0.00089c-1.70086,-0.18432 -3.139,-0.44866 -3.40931,-0.55848l-0.00536,0c-0.23065,-0.1706 -1.09214,-0.46832 -1.86781,-0.68413l-0.00009,0c-1.54728,-0.43031 -5.74731,-2.42213 -6.20846,-2.86566l-0.00583,0c-0.01956,-0.03881 -0.04212,-0.06807 -0.0617,-0.09061l0.00012,0c-0.17452,-0.20348 -0.80769,-0.58694 -1.38624,-0.90285l-0.01293,-0.00651c-1.25944,-0.61038 -6.35703,-5.76214 -7.10846,-7.16176l0,-0.00012c-0.25934,-0.48287 -0.77103,-1.4674 -1.12784,-2.17626l-0.00253,-0.00502c-2.43131,-4.60738 -3.10117,-7.48097 -3.10136,-13.34516c0.0322,-4.0357 0.45214,-6.94114 1.26984,-8.87794l0.00137,-0.00318c0.99717,-2.44556 1.85,-4.28981 2.03474,-4.55362l-0.00839,0l0.00944,-0.00389c0.00711,-0.0069 0.00751,-0.00722 0.01567,-0.01637c0.13502,-0.14602 0.40767,-0.62893 0.65039,-1.08082l0.00223,-0.00419c1.23259,-2.38588 6.48784,-7.60561 8.8895,-8.82974l0.00418,-0.0022c0.45274,-0.23981 0.93661,-0.50933 1.08611,-0.64415l-0.00012,0c0.00555,-0.00492 0.00741,-0.00649 0.00926,-0.00826l-0.00087,0c0.20436,-0.15928 1.98211,-0.95377 4.58765,-2.0586l-0.00165,0c0.52266,-0.18332 2.02343,-0.53375 3.33801,-0.72483c0.81634,-0.11858 1.50351,-0.22264 2.19195,-0.3264l-0.00012,0c0.41361,-0.06236 0.74561,-0.11243 0.95604,-0.14298l0.00047,0c0.07479,-0.01097 0.01286,-0.00206 0.08258,-0.01193l0.00925,-0.00143c0.37237,-0.06427 0.90458,-0.09503 1.55807,-0.09503zm-3.5483,-16.73641c-0.13395,0 -0.23997,0.05964 -0.31401,0.12346l-0.00016,0c-0.20354,0.17587 -0.30625,0.50326 -0.30625,0.81369c0,0.18774 -0.04367,0.31637 -0.0712,0.3694l-0.00856,0c-0.09629,0.03755 -0.15196,0.11032 -0.1609,0.12104c-0.22081,0.26442 -0.64299,1.39705 -1.03824,2.63071l-0.00222,0.00755c-0.40311,1.38598 -0.81312,2.48186 -0.93035,2.64035l-0.00787,0c-0.00816,0.00712 -0.01587,0.01439 -0.02277,0.02115l-0.0004,0.00041c-0.22935,0.22504 -0.48209,0.91135 -0.65514,1.51273l-0.00106,0.00387c-0.24047,0.88201 -0.42871,0.99271 -0.51822,0.99271c-0.1668,0 -0.50115,-0.20636 -1.14308,-0.89177l-0.00165,-0.00187c-1.08764,-1.14196 -5.51672,-5.12854 -6.05585,-5.40796l0.0001,0c-0.01137,-0.00591 -0.08415,-0.04603 -0.17228,-0.04603c-0.2458,0 -0.3172,0.2669 -0.3106,0.2669l0.00281,0c-0.08561,0.35113 -0.22925,2.08609 -0.34446,4.08891l0,0.00018c-0.13131,2.31388 -0.39165,4.44825 -0.5832,4.82882l-0.00942,0.02066l-0.22996,0.56071l-2.12982,-1.15659l-0.00159,-0.00081l-0.00642,-0.00364c-3.15087,-1.6872 -5.81498,-3.03575 -6.24656,-3.13333l-0.00048,0c-0.00632,-0.00146 -0.01327,-0.00292 -0.02065,-0.00438l-0.00458,0l-0.06731,-0.00773l-0.00827,0l-0.17273,0.05507c-0.12131,0.08601 -0.13642,0.23481 -0.13593,0.23481l0,0c-0.05533,0.34137 0.11791,2.0364 0.40755,3.96399l-0.00009,0c0.13316,0.89903 0.2495,1.66892 0.35573,2.37248c0.06418,0.42478 0.14078,0.93253 0.17773,1.18274l0,0.00024c0.01829,0.12319 0.03346,0.22705 0.04536,0.31084c-0.68096,-0.03955 -2.24079,-0.42032 -2.56042,-0.64457l-0.00011,0c-0.01286,-0.00975 -0.02987,-0.02115 -0.04028,-0.02752l-0.00168,-0.00097c-0.45103,-0.27724 -4.31059,-1.32494 -4.96448,-1.34636l-0.00826,0l-0.01471,-0.00181l-0.00837,0l-0.04365,0.00327c-0.23395,0.03451 -0.29379,0.25044 -0.3074,0.31296c-0.02977,0.13682 -0.01488,0.31511 0.01021,0.48022c0.08783,0.57845 0.39359,1.5293 0.7467,2.06735l-0.00115,0c0.1929,0.35891 0.69134,1.47419 1.06984,2.50818c0.38617,1.05487 0.84969,2.08364 1.00165,2.31008l0.02461,0.03183l-0.00028,0c0.21069,0.28454 1.02187,2.63444 1.21156,3.41387l-0.00835,0c-0.4328,0.05468 -1.44066,0.10867 -2.66102,0.10867c-1.68716,0 -4.37782,0.09661 -5.99767,0.1933l-0.00523,0.00035l-2.90903,0.22467c-0.11149,0.0086 -0.20869,0.07857 -0.25149,0.18117c-0.0428,0.1026 -0.02398,0.22026 0.04856,0.30466l2.45649,2.85746l0.00261,0.003c1.36043,1.53975 2.35712,2.95673 2.41694,3.23212l-0.00369,0c-0.02131,0.12546 -0.24126,0.32114 -1.70635,0.65179l0.00022,0c-4.05339,0.91377 -5.33879,1.20357 -5.66361,1.55109l0.00009,0c-0.04913,0.05258 -0.08813,0.11297 -0.11215,0.1842l-0.00632,0.02147c-0.03258,0.12844 0.02345,0.23785 0.03901,0.26818l-0.00009,0c0.27635,0.53944 2.95167,2.74342 3.74978,3.09216l0.00427,0.00184c0.50196,0.20993 3.19992,2.38673 3.78737,3.00281l-0.00847,0c-0.14875,0.12077 -0.43364,0.30762 -0.78405,0.47143l-0.00632,0.00315c-0.48937,0.24312 -1.51545,0.79387 -2.57877,1.36372l-0.0002,0l-0.75846,0.40614l0.00008,0c-0.00351,0.00193 -0.01392,0.00769 -0.02298,0.01332l-0.00045,0c-1.22265,0.70255 -2.82237,1.55974 -3.51409,1.87208l-0.01002,0.00463l-1.29301,0.64225c-0.10379,0.05161 -0.16781,0.15851 -0.16403,0.27379c0.00381,0.11528 0.07483,0.21763 0.18193,0.26235l1.61626,0.67419l-0.00187,-0.00074l0.04399,0.01866l0.00019,0c0.58365,0.2486 0.2995,0.12743 0.95873,0.40714c0.19342,0.08212 1.04411,0.44353 1.24868,0.53058c0.42412,0.1805 0.79948,0.34076 1.1411,0.48783l-0.0001,0c0.96879,0.41694 2.24097,0.9356 2.83638,1.13289l-0.00046,0c1.296,0.4836 1.37714,0.69899 1.27693,0.96444c-0.13519,0.35801 -0.62957,0.89506 -1.61254,1.81554c-3.61049,3.36215 -4.65553,4.31165 -4.71623,4.84307c-0.01217,0.10664 0.0068,0.20372 0.04502,0.28842l0.00022,0.00012c0.03541,0.07821 0.08355,0.13947 0.12147,0.18455l0.00295,0.00361c0.01953,0.02239 0.04249,0.0437 0.06128,0.05937c0.35088,0.29118 1.68627,0.53206 2.9807,0.65179l0.00479,0.00031l0.00516,0.00038l-0.00012,0c3.25447,0.26738 4.19058,0.4898 4.31304,0.68128l-0.00828,0c-0.06904,0.2403 -0.56391,1.09623 -1.23237,2.03177c-0.65302,0.8847 -1.2398,1.79899 -1.32648,2.06876l0,0c-0.00709,0.02193 -0.02031,0.06743 -0.02119,0.11881l-0.00828,0c-0.06654,0.15782 -0.34641,0.60978 -0.73736,1.10906c-0.40367,0.51563 -0.76927,1.0533 -0.84502,1.26562l-0.0001,0.00014c-0.00807,0.02259 -0.02549,0.07467 -0.02549,0.13533c0,0.249 0.25399,0.31891 0.25848,0.31891l0.00015,0c0.19595,0.06255 0.66617,0.07834 1.22046,0.07834c2.39317,0 7.82235,-0.3342 8.43395,-0.58774l-0.00009,0c0.02255,-0.00922 0.06829,-0.03024 0.10865,-0.06328l0.02101,-0.01897c0.08113,-0.0735 0.51189,-0.2026 1.0182,-0.2026c0.38551,0 0.49348,0.01528 0.52996,0.03771l-0.00788,0c0.00408,0.016 0.00953,0.04905 0.00953,0.1098l0,0.0001c0.00009,0.16846 -0.03979,0.42823 -0.11333,0.85611l-0.00009,0.00043c-0.32327,1.8946 -1.06167,4.74503 -1.42735,5.47147l-0.00252,0.00499c-0.31577,0.65863 -1.2505,4.10645 -1.23611,4.61634l0,0.00028l-0.00019,0c-0.00116,0.01482 0.00019,0.17756 0.13133,0.27436l-0.00049,0c0.0814,0.06145 0.17374,0.06698 0.20349,0.06698c0.00682,0 0.01031,-0.00019 0.00974,-0.00019c0.00883,0 0.01944,-0.00031 0.02779,-0.00074l-0.00065,0c0.49552,-0.0247 3.7824,-1.1795 4.19337,-1.48639l0,0c0.01763,-0.01303 0.04338,-0.03341 0.06897,-0.06259l-0.00088,0c0.16907,-0.14932 1.33766,-0.59496 2.99172,-1.06909l-0.0004,0l0.34896,-0.09042l-0.20351,3.60891l0.00019,-0.00181l-0.00057,0.00819c-0.08582,1.96716 -0.10265,3.72881 0.01243,4.09523l-0.00057,0c0.00515,0.02372 0.07537,0.24525 0.30407,0.25504l0.01294,0.00035l0.00058,0c0.04691,0 0.08669,-0.00925 0.11151,-0.01597l-0.00021,0c0.26187,-0.07001 1.05487,-0.52938 1.79969,-1.06141l-0.00019,0l0.07959,-0.05291l0.00009,-0.00011l0.27041,-0.18009l0,0c0.00012,0 0.21715,-0.14446 0.24514,-0.16304c1.77383,-1.18109 2.36099,-1.55964 2.62598,-1.68052l0.00847,0c0.1749,1.69522 0.28667,11.66789 0.31595,31.01612l0,0.00061l0.097,31.36748c0.00039,0.12449 0.07918,0.23501 0.19696,0.27717c0.0328,0.01152 0.06663,0.0172 0.1001,0.0172c0.08698,0 0.17149,-0.03794 0.22911,-0.10713l2.00399,-2.40804l-0.00012,0c1.09582,-1.31242 2.518,-2.94955 3.15868,-3.64949l0.00496,-0.00568c0.1917,-0.22049 0.56322,-0.6508 0.98013,-1.13386l0.00009,-0.00031c0.69099,-0.80071 1.70024,-1.9699 2.62035,-3.02827c0.24487,-0.28147 0.32677,-0.3757 0.56876,-0.6531l0.00352,-0.00407c1.65194,-1.96245 3.7105,-4.35866 4.58598,-5.35697c0.84856,-0.96767 1.69507,-1.67153 1.92201,-1.72875l-0.01265,0l0.02041,-0.00131l0.00866,0c0.13582,0.01536 0.5723,0.36441 0.94787,0.9553c0.38598,0.60679 1.00837,1.35481 1.45357,1.55587l-0.00394,0c0.27117,0.16735 0.42925,0.35727 0.44521,0.42017l-0.00085,0c0.00414,0.08125 0.04112,0.14584 0.04386,0.15129l0.0001,0.00008c0.37529,0.72429 8.72655,10.37233 10.83412,12.55934l0.0046,0.00461c0.46187,0.4588 0.73318,0.87966 0.75427,0.99378l-0.0007,0c0.00088,0.02934 0.00448,0.05752 0.00914,0.08194l0,0.00023c0.05166,0.27056 0.32745,0.61493 0.57686,0.83189l0.00027,0l0.00591,0.00515c0.04021,0.0331 0.12356,0.09024 0.23941,0.09024c0.20467,0 0.30331,-0.16059 0.33611,-0.22494l0,0.00015c0.35542,-0.69757 0.40302,-6.27356 0.46059,-31.10659l0,0.00038c0.08415,-24.59953 0.15602,-30.09049 0.41682,-31.0509l0.00866,0c0.40732,0.18787 1.42324,0.79776 2.49407,1.58872l0.004,0.0029c1.1745,0.83761 2.38492,1.60422 2.75886,1.68228l0.00067,0.00005c0.02879,0.00591 0.05809,0.01052 0.0966,0.01052c0.19369,0 0.30234,-0.13835 0.34786,-0.21616c0.15137,-0.25884 0.19106,-0.84989 0.19106,-1.53309c0,-1.23995 -0.14446,-3.11658 -0.40583,-5.10166l-0.00078,-0.00502c-0.08153,-0.54702 -0.08785,-0.94488 -0.06578,-1.14527l0.00886,0c0.74319,0.15702 3.1862,0.99966 3.46704,1.20257l-0.00019,0c0.54942,0.41606 3.89094,1.54128 4.42343,1.54278l0.00159,0c0.00191,0 0.00543,0.00012 0.01018,0.00012c0.03437,0 0.13679,-0.00422 0.22492,-0.0746l-0.18611,-0.23011l0.21141,0.20748c0.10866,-0.10921 0.10075,-0.25382 0.09948,-0.28436c-0.00894,-0.23385 -0.18917,-0.69439 -0.40078,-1.11469l-0.0067,-0.01263c-0.26954,-0.47601 -0.71429,-1.78981 -1.00505,-2.91295c-0.29171,-1.15884 -0.74476,-2.70471 -1.04386,-3.46587l0,0c-0.53009,-1.42578 -0.40955,-1.64225 -0.15127,-1.73697l-0.00019,0c0.13791,-0.05064 0.35582,-0.08049 0.68053,-0.08049c0.28707,0 0.64194,0.02273 1.07159,0.06257l-0.00038,0c1.11099,0.12643 2.0539,0.30469 2.21557,0.39546l-0.00097,0l0.00056,0.00046c0.01695,0.01206 0.03075,0.02027 0.04376,0.02768l0,0c0.49456,0.28236 3.27551,0.51932 4.6322,0.51932c0.35789,0 0.69572,-0.01444 0.86994,-0.07569l0.00007,0c0.01081,-0.00382 0.25692,-0.07806 0.25692,-0.3264c0,-0.05059 -0.01168,-0.09423 -0.01817,-0.11673l-0.00021,-0.00051c-0.07617,-0.25823 -0.60062,-1.12335 -1.15899,-1.99911l-0.00252,-0.00376c-0.54952,-0.83319 -0.9819,-1.55715 -1.07383,-1.77525l-0.00896,0c-0.00135,-0.0455 -0.01175,-0.08349 -0.01732,-0.10272l-0.00006,0c-0.07852,-0.27164 -0.66344,-1.2817 -1.32162,-2.2921l-0.00244,-0.00389c-0.6357,-0.97612 -1.12725,-1.83995 -1.23065,-2.10284l-0.00894,0c0.19446,-0.1549 1.12976,-0.31526 4.74133,-0.71677l0.00137,-0.00018c1.92305,-0.22284 3.88387,-0.57888 4.35682,-0.79568l0.00835,-0.00399l0.00079,-0.00041l-0.00008,0c0.13608,-0.06748 0.31274,-0.15718 0.42218,-0.2971c0.08599,-0.10975 0.12792,-0.24422 0.10854,-0.39459l0.00012,0c-0.0109,-0.08445 -0.04077,-0.16619 -0.07784,-0.23989c-0.2182,-0.43345 -1.00427,-1.15691 -2.58346,-2.59922l-0.00009,-0.00011c-1.34134,-1.22361 -2.37276,-2.31035 -2.63514,-2.70145l-0.00894,0c0.18327,-0.12703 0.63666,-0.35028 1.19087,-0.51916l-0.00107,0c0.78551,-0.19499 1.60554,-0.52676 1.87847,-0.72061l-0.00009,0c0.17725,-0.12572 1.19192,-0.53088 2.29915,-0.8547l0,0c1.04285,-0.28902 1.7778,-0.57592 1.98147,-0.9522c0.06032,-0.11147 0.08358,-0.24187 0.04621,-0.37558c-0.00531,-0.01962 -0.01206,-0.03848 -0.01895,-0.05557l-0.0003,0c-0.10855,-0.28753 -0.35555,-0.55471 -0.62969,-0.62366l0,0c-0.03355,-0.00853 -0.07041,-0.01468 -0.10884,-0.01657l-0.00923,0c-0.16858,-0.03299 -0.83178,-0.40857 -1.6205,-0.90949l-0.00078,0c-0.78785,-0.55434 -2.05953,-1.29946 -2.78394,-1.65952l-0.00031,0c-1.44474,-0.73216 -3.84132,-2.41426 -4.26471,-2.89978l-0.00894,0c0.23367,-0.37574 1.52463,-1.53068 2.57987,-2.17145l-0.0001,0c1.68648,-1.01702 5.56399,-4.33439 5.86875,-5.0279l-0.26479,-0.11479l-0.00902,0c0.00045,-0.00098 0.00094,-0.00225 0.00144,-0.00323l0,0l0.27237,0.11792c0.01471,-0.03336 0.08483,-0.18969 -0.00806,-0.34444c-0.01438,-0.02419 -0.03201,-0.046 -0.05126,-0.06494l0,0c-0.0323,-0.03211 -0.06798,-0.0541 -0.08706,-0.06543c-0.31129,-0.18166 -1.98608,-0.61509 -3.80835,-0.97734l-0.00031,0c-1.66271,-0.36384 -3.03074,-0.70997 -3.40311,-0.87289l-0.00893,0c0.05252,-0.34533 0.70643,-1.45869 1.66011,-2.4921l0.00651,-0.00737c0.38299,-0.44387 1.29377,-1.47774 2.00157,-2.27663l0.00116,-0.00134l1.2929,-1.47688c0.07441,-0.08494 0.09368,-0.20459 0.04952,-0.3085c-0.04415,-0.10376 -0.14388,-0.17354 -0.25711,-0.17979l-3.4562,-0.19238l0.00144,0c-1.87928,-0.12879 -4.21137,-0.22556 -5.19221,-0.22556c-0.56956,0 -1.03989,-0.02478 -1.3143,-0.05599l-0.00897,0c0.19583,-0.46786 0.65049,-1.48921 1.20331,-2.63551l0.00108,-0.00223c0.74455,-1.57534 1.67189,-3.54416 2.06741,-4.42751l-0.00011,0c0.3679,-0.75712 0.59474,-1.48179 0.53201,-1.82459c-0.01294,-0.07123 -0.05436,-0.21989 -0.20476,-0.29702l-0.00019,0c-0.01469,-0.00776 -0.02861,-0.01313 -0.03182,-0.01452l-0.02081,-0.0074c-0.03056,-0.00962 -0.05498,-0.01365 -0.07395,-0.01634l-0.00029,0c-0.04348,-0.0063 -0.09312,-0.00814 -0.1362,-0.00814c-0.93598,0 -6.02394,0.93372 -6.61106,1.29445l-0.00186,0.00108c-0.01399,0.00868 -0.02869,0.01874 -0.04212,0.02911l-0.00097,0c-0.31984,0.2084 -1.557,0.42954 -2.32354,0.42954c-0.10873,0 -0.19203,-0.00481 -0.25253,-0.01129l-0.00876,0c0.06936,-1.1867 0.74319,-5.20406 0.94046,-5.68836l0,0c0.33318,-0.78232 0.71415,-3.29268 0.55034,-3.8249c-0.01228,-0.03994 -0.05867,-0.18478 -0.20819,-0.24857l-0.0033,-0.00136c-0.01819,-0.00746 -0.03851,-0.01453 -0.06352,-0.01936l-0.00097,0l-0.08647,-0.00742c-0.02003,0.00115 -0.04369,0.00456 -0.0611,0.0078l-0.00108,0.00035c-0.60193,0.1167 -5.49619,2.62238 -6.39029,3.25663l-0.003,0.00216c-0.28775,0.20969 -0.53737,0.33096 -0.68631,0.37765c-0.06562,-0.49432 -0.13382,-1.96665 -0.13382,-3.70333c0,-2.03902 -0.10127,-3.67722 -0.31916,-4.07284l0.0001,0c-0.02228,-0.04041 -0.06409,-0.10603 -0.13639,-0.15384l-0.00037,-0.00018c-0.07152,-0.04715 -0.14934,-0.06863 -0.21869,-0.07634l-0.00106,0c-0.02074,-0.00223 -0.04992,-0.00376 -0.07015,-0.00376c-0.37985,0 -0.96468,0.33031 -1.44696,0.70287l-0.00545,0.00438c-1.59056,1.28969 -6.1075,5.0391 -6.95351,5.75022l-0.01304,0.01156c-0.28764,0.27222 -0.41418,0.37301 -0.47508,0.40394c-0.03247,-0.02958 -0.09193,-0.10005 -0.20788,-0.26309c-0.19455,-0.27597 -0.73297,-1.57987 -1.15487,-2.96613l-0.00068,-0.00192c-0.40194,-1.28999 -0.85654,-2.57014 -1.02919,-2.8249l-0.00019,-0.00031c-0.00323,-0.00465 -0.00585,-0.0086 -0.00846,-0.01225l-0.00077,0c-0.10148,-0.15126 -0.47473,-1.09508 -0.83553,-2.16935l-0.00009,0c-0.27898,-0.91432 -0.69028,-1.81802 -1.03424,-2.05254l-0.00019,-0.00018c-0.05604,-0.03817 -0.14292,-0.08333 -0.25196,-0.08333c-0.06468,0 -0.12723,0.01582 -0.17439,0.03358l-0.0004,0.00009c-0.36449,0.1382 -0.8426,0.78098 -1.18502,1.40446l-0.0001,0c-0.386,0.70297 -0.74288,1.28894 -0.82519,1.38092l-0.00021,0c-0.00776,0.00806 -0.01642,0.01743 -0.01914,0.02061l0,0c-0.1433,0.16317 -0.72686,1.07032 -1.31353,2.0209l-0.00236,0.00375c-0.64999,1.08941 -0.86888,1.39342 -0.9813,1.44211c-0.02677,-0.01033 -0.09156,-0.05125 -0.24029,-0.19028l-0.00477,-0.00436c-0.28968,-0.25901 -0.46945,-0.58453 -0.48308,-0.67972l-0.00037,0c0,-0.39052 -0.34982,-0.72514 -0.64913,-0.87394l-0.02851,-0.01237c-0.17978,-0.067 -0.29211,-0.23488 -0.29211,-0.33375c0,-0.02586 -0.00234,-0.05002 -0.00505,-0.06948c-0.04941,-0.35243 -0.60311,-1.30807 -1.18037,-2.1228c-0.57432,-0.81059 -1.01196,-1.5793 -1.07333,-1.78865l-0.00389,0c0,-0.2208 -0.08561,-0.46133 -0.28375,-0.60379l0.00007,0c-0.09474,-0.06831 -0.20915,-0.10872 -0.33667,-0.10872z"/>
   </g>
   <g stroke="null" id="svg_3" fill="rgb(244,67,54)">
    <path stroke="null" id="svg_4" d="m354.27428,276.66679c-3.18265,0 -6.59742,0.40123 -7.99588,1.14062l-0.00038,0c-0.53115,0.26319 -1.04261,0.447 -1.18523,0.447l-0.01118,0c-0.51324,0.00995 -2.85194,1.02673 -3.20088,1.36672c-0.09737,0.08105 -0.68123,0.40345 -1.38141,0.75114c-1.73825,0.86338 -7.66802,6.75336 -8.53699,8.47951c-0.35222,0.69982 -0.67654,1.2795 -0.75747,1.37361l-0.00019,0c-0.01471,0.01514 -0.02657,0.02984 -0.03417,0.0397l-0.00028,0.00051c-0.14755,0.19121 -0.56536,1.06715 -0.9602,1.97202l0,0.00014c-0.05321,0.122 -0.21111,0.48273 -0.26626,0.60857c-0.17385,0.39685 -0.08697,0.19771 -0.25536,0.58382l-0.00009,0c-0.23598,0.54089 -0.4386,1.01148 -0.51928,1.2319l-0.00057,0c-0.9327,2.15633 -1.27772,10.15184 -0.59183,13.16878c0.42694,1.95496 1.79582,5.39014 2.72199,6.83577l0.0001,0c0.38211,0.60141 0.89281,1.52101 1.14544,2.05411l0.00203,0.00411c0.8756,1.77291 6.23173,6.75763 8.4363,7.9014l0.00009,0c1.05385,0.55416 2.22992,1.07015 2.59353,1.09216l0.00309,0.00008c0.00703,0.00041 0.02221,0.00084 0.02978,0.00084c0.2002,0 0.2938,0.10096 0.29991,0.11912l-0.00009,0c0.0292,0.08724 0.08754,0.14699 0.1219,0.17794l0.00008,0c0.56615,0.51117 5.05284,1.62929 6.43065,1.62929c0.53211,0 0.9362,0.11266 1.01234,0.18374l-0.00281,0c0.04406,0.06989 0.10341,0.11193 0.14272,0.13613c0.32102,0.19757 1.36224,0.32221 2.37099,0.32221c1.00925,0 2.05012,-0.12464 2.37112,-0.32221c0.03785,-0.02319 0.09473,-0.06336 0.13853,-0.12971l-0.00389,0c0.08912,-0.07677 0.55448,-0.19015 1.17918,-0.19015c1.87169,0 5.86118,-1.14216 8.088,-2.31257l-0.00008,0c4.92984,-2.52922 10.06329,-7.77894 11.74375,-11.99951l-0.00012,0c0.3327,-0.8264 0.65896,-1.54334 0.77461,-1.66673l0,0l0.0219,-0.02431c0.72411,-0.89889 1.39077,-5.57899 1.42277,-9.01077l0,-0.00271c0,-4.31822 -0.45302,-7.25621 -1.57763,-9.68848l0.00009,0c-0.40215,-0.89105 -0.71128,-1.65206 -0.74787,-1.8376l-0.00184,0c0,-0.04247 -0.00788,-0.08141 -0.01399,-0.10619l0,-0.00025c-0.07258,-0.29276 -0.60489,-1.1604 -1.16713,-1.98364l-0.00018,0l-0.00234,-0.00346l-0.00137,-0.00215c-0.54125,-0.79218 -0.97053,-1.45783 -1.07091,-1.66051l-0.00866,0c-0.00963,-0.08194 -0.05282,-0.14676 -0.06078,-0.15712l-0.0004,0c-0.14545,-0.2145 -1.21919,-1.33551 -2.44826,-2.556l-0.00108,-0.0011c-2.95874,-2.90655 -6.32344,-5.21722 -9.09601,-6.16868c-1.12596,-0.39459 -2.10777,-0.76457 -2.26138,-0.86617l-0.16479,0.2456l0.15146,-0.25397c-0.00428,-0.00243 -0.01274,-0.00753 -0.02608,-0.01448l0,0c-0.24289,-0.12558 -1.30872,-0.38268 -2.30087,-0.56751l-0.00145,-0.00023c-1.28481,-0.23309 -2.89779,-0.3403 -4.54466,-0.3403z"/>
   </g>
   <g stroke="null" id="svg_5" fill="rgb(0,0,0)">
    <path stroke="null" id="svg_6" d="m150.73237,129.6039c-0.1641,0 -0.29713,0.13225 -0.29713,0.29518l0,10.595l0,10.59497c0,0.07823 0.03128,0.15344 0.08702,0.20866c0.05573,0.05542 0.13127,0.08648 0.21011,0.08648l100.68737,-0.00012l100.68727,0.00012c0.07879,0 0.15437,-0.03106 0.2101,-0.08648c0.05566,-0.05522 0.08698,-0.13044 0.08698,-0.20866l0,-10.59497l0,-10.595c0,-0.16294 -0.13297,-0.29518 -0.29708,-0.29518l-201.37464,0z"/>
   </g>
   <g stroke="null" id="svg_7" fill="rgb(0,0,0)">
    <path stroke="null" id="svg_8" d="m150.73236,187.71562c-0.16411,0 -0.29712,0.13217 -0.29712,0.29516l0,10.59508l0,10.59699c0,0.07826 0.03126,0.15348 0.087,0.20874c0.05574,0.05522 0.13127,0.08632 0.21012,0.08632l239.8395,-0.00204c0.16411,0 0.2972,-0.13213 0.2972,-0.29517l0,-10.5949l0,-10.59505c0,-0.16301 -0.13309,-0.29519 -0.2972,-0.29519l-239.8395,0.00005z"/>
   </g>
   <g stroke="null" id="svg_9" fill="rgb(0,0,0)">
    <path stroke="null" id="svg_10" d="m150.73235,43.02344c-0.1054,0 -0.19081,0.08483 -0.19081,0.18946l-0.00002,10.65915l0,10.6913c0,0.05035 0.02013,0.09859 0.05594,0.13417c0.03574,0.03553 0.08439,0.05545 0.13507,0.05545l103.27321,-0.09631l-0.00009,0l103.27331,-0.06424c0.10535,-0.00012 0.19067,-0.08482 0.19067,-0.18946l0,-10.59499l0.00002,-10.59503c0,-0.10465 -0.08541,-0.18947 -0.19075,-0.18947l-206.54656,-0.00004z"/>
   </g>
   <g stroke="null" id="svg_11" fill="rgb(0,0,0)">
    <path stroke="null" id="svg_12" d="m150.73243,71.91876c-0.05058,0 -0.09922,0.01988 -0.13497,0.05546c-0.03581,0.0355 -0.05594,0.08373 -0.05594,0.13404l0.00005,10.59497l0.00002,10.59712c0,0.05035 0.02004,0.09835 0.05583,0.13394c0.0358,0.03552 0.08434,0.05553 0.13498,0.05553l220.76865,-0.002c0.0508,0 0.09953,-0.0202 0.13536,-0.05599c0.03576,-0.03579 0.05582,-0.08433 0.05552,-0.13476l-0.06472,-10.53076l0,-0.00049l-0.09699,-10.49859c-0.00099,-0.10399 -0.08601,-0.18774 -0.19058,-0.18785l-110.28733,-0.09646l-0.00008,0l-110.31978,-0.06416z"/>
   </g>
   <g stroke="null" id="svg_13" fill="rgb(0,0,0)">
    <path stroke="null" id="svg_14" d="m150.73249,100.81422c-0.05063,0 -0.09922,0.01984 -0.13498,0.05542c-0.03578,0.03549 -0.05593,0.08374 -0.05593,0.13405l-0.00002,10.59487l0,10.59708c0,0.05036 0.02004,0.09846 0.05582,0.13401c0.03581,0.03559 0.08436,0.05556 0.13498,0.05556l157.09164,-0.0021c0.05078,0 0.09951,-0.02012 0.13531,-0.05591c0.03581,-0.03587 0.05579,-0.0844 0.05549,-0.13483l-0.06463,-10.53062l0,-0.00056l-0.09694,-10.49859c-0.00096,-0.10399 -0.08595,-0.18777 -0.19055,-0.18785l-78.44886,-0.09628l-0.00014,0l-78.48119,-0.06423z"/>
   </g>
   <g stroke="null" id="svg_15" fill="rgb(0,0,0)">
    <path stroke="null" id="svg_16" d="m150.73237,158.6049c-0.10539,0 -0.19081,0.08482 -0.19081,0.18949l-0.00002,10.75541l0,10.75759c0,0.05034 0.02005,0.09842 0.05584,0.13401c0.0358,0.0356 0.08433,0.05556 0.13497,0.05556l213.33434,-0.00213c0.10542,0 0.19086,-0.08484 0.19086,-0.18949l0,-10.75556l0.00005,-10.75541c0,-0.10468 -0.08541,-0.18949 -0.19086,-0.18949l-213.33438,0z"/>
   </g>
   <g stroke="null" id="svg_17" fill="rgb(0,0,0)">
    <path stroke="null" id="svg_18" d="m266.45001,216.7165l-115.71766,0.00015c-0.1054,0 -0.19082,0.08486 -0.19082,0.18946l0,10.59497l0.00005,10.5951c0,0.05033 0.02014,0.09856 0.05593,0.13412c0.03574,0.03556 0.08439,0.05534 0.13498,0.05534l115.65304,-0.06417l115.62071,-0.09646c0.10467,-0.00019 0.18969,-0.08394 0.19067,-0.18785l0.09699,-10.53069l0,-0.00046l0.06469,-10.49872c0.00027,-0.05048 -0.01976,-0.09902 -0.05555,-0.13473c-0.0358,-0.03587 -0.08452,-0.05596 -0.1353,-0.05596l-115.71772,-0.00011z"/>
   </g>
   <g stroke="null" id="svg_19" fill="rgb(0,0,0)">
    <path stroke="null" id="svg_20" d="m274.5956,6.10159c-86.83954,0 -158.14324,0.09419 -159.20447,0.22349l-0.00078,0c0.00594,-0.00081 0.00885,-0.00146 0.00953,-0.00189l-0.00627,0c-0.02277,0.00262 -0.10117,0.0202 -0.14596,0.08253l-0.02344,0.0437c-0.00823,0.02161 -0.01114,0.03783 -0.01318,0.05526c-0.12991,1.09772 -0.22515,82.43917 -0.22519,181.57029l0.00001,181.33656c0,0.05023 0.02004,0.0983 0.05584,0.13394c0.03579,0.0355 0.08438,0.05545 0.13497,0.05545l101.91555,-0.002c55.66822,0 101.3595,-0.06313 102.08585,-0.12782l0.00244,-0.00021c0.0142,-0.00138 0.02822,-0.00369 0.04707,-0.00968l0.07436,-0.04424c0.04627,-0.04447 0.0593,-0.10652 0.06077,-0.11753l-0.00031,0c0.0657,-0.3395 0.09271,-4.82234 0.03015,-10.13384l-0.09696,-9.9848c-0.00098,-0.10406 -0.08599,-0.18774 -0.19067,-0.18788l-92.99434,-0.06413l0.00007,0l-92.8061,-0.0962l-0.19148,-14.74233l0,0.00028c-0.09699,-8.21919 -0.22634,-80.5816 -0.25862,-160.88079c-0.0314,-109.83717 0.06133,-144.01166 0.32412,-146.14801l-0.00641,0c2.0161,-0.25851 34.4127,-0.35231 137.98059,-0.35231l3.44286,0l140.99773,-0.00204l-0.00003,161.14275l-0.00019,161.14373l-13.28892,0.06321l-0.00047,0l-13.51116,0.09643c-0.10486,0.00072 -0.18939,0.08535 -0.18939,0.18957l0,9.95275l0,9.95281c0,0.05043 0.02003,0.09857 0.05583,0.13409c0.03579,0.03536 0.08436,0.05545 0.13495,0.05545l22.30306,-0.00015l22.30321,0.00015c0.10533,0 0.19072,-0.08459 0.19072,-0.18936l0.09719,-181.49472l0.06477,-181.4629c0,-0.0503 -0.02015,-0.09853 -0.05601,-0.13409c-0.03578,-0.03559 -0.08432,-0.05556 -0.13491,-0.05556l-158.96638,0.00003z"/>
   </g>
   <g stroke="null" id="svg_21" fill="rgb(0,0,0)">
    <path stroke="null" id="svg_22" d="m462.48927,38.0113l-0.00943,0.00046l-0.00062,0l-0.01302,0.00197l-0.00019,0c-1.47442,0.1984 -1.91269,0.27551 -2.57357,0.5281c-0.41067,0.15314 -1.37448,0.68267 -2.10569,1.15859l-0.00073,0.00046l-1.31095,0.87632l-0.03144,0.05879l0.05046,18.92944l0,0.00028l0.0756,18.93124l0.07118,0.07019l11.59601,-0.00157l0.0711,-0.07036l0.0757,-18.97961l0,0l0.05037,-18.95455l-0.03243,-0.05952l-1.51252,-0.97669l-0.00012,-0.00012c-0.86149,-0.55364 -2.10452,-1.10898 -2.82147,-1.26173l0.0002,0c-0.68026,-0.15007 -1.39384,-0.25167 -1.57844,-0.25167z"/>
   </g>
   <g stroke="null" id="svg_23" fill="rgb(0,0,0)">
    <path stroke="null" id="svg_24" d="m458.34507,80.0954c-6.26702,0 -10.98504,0.04535 -11.24545,0.12956l0,0c-0.00061,0 -0.0353,0.00902 -0.05149,0.04105l-0.00376,0.00929c-0.00162,0.00476 -0.00294,0.00929 -0.00402,0.01669l-0.00008,0.00047c-0.07554,0.54375 -0.10021,46.26221 -0.075,101.98947l0.02521,101.78361l0.07082,0.07058l15.32664,0.07524l0,0l15.30166,0.05033l0.07147,-0.07081l0.00005,-63.89953c0.00019,-35.19749 0.02524,-81.00853 0.07554,-101.9839l0,-0.00015l0.05057,-38.05963l-0.07086,-0.07079l-15.30168,-0.07498l-0.00034,0c-1.55686,-0.00445 -2.72713,-0.00663 -4.16929,-0.00649z"/>
   </g>
   <g stroke="null" id="svg_25" fill="rgb(0,0,0)">
    <path stroke="null" id="svg_26" d="m487.52128,80.30226l-0.07098,0.07055l0,2.80454c0.00003,0.42842 -0.0043,2.27521 -0.01079,5.07408c-0.01624,6.91289 -0.04701,19.86478 -0.06475,34.06201l-0.05053,36.30677l0.0694,0.0705l2.97456,0.07526l0,0l2.94953,0.07511l0.07307,-0.0705l-0.00019,-39.21147l0.00015,-39.18631l-0.07145,-0.07073l-5.79801,0.00018z"/>
   </g>
   <g stroke="null" id="svg_27" fill="rgb(0,0,0)">
    <path stroke="null" id="svg_28" d="m479.20252,80.32691l-0.04601,0.0458l0.00003,3.8812l0,3.88254l0.04601,0.04582l6.55433,-0.00154l0.04601,-0.04581l0,-3.88089l-0.00015,-3.88132l-0.04593,-0.04561l-6.55429,-0.00019z"/>
   </g>
   <g stroke="null" id="svg_29" fill="rgb(0,0,0)">
    <path stroke="null" id="svg_30" d="m486.41217,142.92509c-0.01216,0 -0.02113,0.00369 -0.0267,0.00627l-0.00029,0c-0.33541,0.15163 -6.36895,6.96648 -6.46939,7.30616l0,0.00011c-0.00106,0.00399 -0.00304,0.01249 -0.00304,0.01932c0,0.0063 0.00126,0.01336 0.00198,0.01659l0.00024,0.00061c0.08645,0.35727 5.91656,7.13176 6.34642,7.40808l0.00186,0.00104c0.00603,0.00369 0.0158,0.00753 0.02779,0.00753c0.02842,0 0.04474,-0.02112 0.05023,-0.02941l-0.00021,0c0.12856,-0.1943 0.21802,-3.10322 0.21802,-7.27891c-0.00008,-3.95833 -0.04686,-7.22606 -0.09874,-7.4169l0.00023,0c0.0007,0 -0.01013,-0.04047 -0.0484,-0.04047z"/>
   </g>
   <g stroke="null" id="svg_31" fill="rgb(0,0,0)">
    <path stroke="null" id="svg_32" d="m446.91034,285.3391l-0.10232,0.12265l0.15124,0.80124l-0.00008,0c0.1287,0.77329 2.34456,17.2041 3.30142,24.48263c0.14896,1.1653 0.39452,2.99563 0.63062,4.75574l-0.0002,0l0.25183,1.8799c0.18247,1.36629 0.34917,2.62141 0.45,3.38134c0.09085,0.68436 0.17572,1.32348 0.27067,2.03406l0,0c0.15134,1.13408 0.34564,2.58067 0.6659,4.95066l-0.00023,0c0.08247,0.63471 0.24611,1.89258 0.30773,2.36503l-0.00008,0l0.1766,1.35875c0.07386,0.56906 0.1178,0.91519 0.12021,0.94898l-0.00009,0c0.00254,0.07411 0.07527,0.09984 0.09773,0.10422l0.01341,0c0.38616,0.04994 4.502,0.09538 9.43026,0.09542l0.01593,0l9.45315,0l0.10191,-0.08151l0.12588,-0.57615c0.12745,-0.58168 5.41638,-45.63461 5.42225,-46.21674l0,-0.00108l0,-0.00075c0,-0.06225 -0.04307,-0.09994 -0.06792,-0.1163l-0.00005,0c-0.33889,-0.2252 -3.95648,-0.28776 -15.41331,-0.2881l-15.40246,0z"/>
   </g>
   <g stroke="null" id="svg_33" fill="rgb(0,0,0)">
    <path stroke="null" id="svg_34" d="m462.46384,333.66439c-3.87348,0.00012 -5.30887,0.05195 -5.51121,0.31879l-0.00008,0.00031c-0.02363,0.03133 -0.03793,0.06866 -0.03793,0.11001c0,0.00051 0.0002,0.00783 0.0002,0.00783c0.01047,0.23037 0.79237,3.73237 1.74193,7.82779c0.95791,4.1311 2.34404,10.21385 3.04975,13.51883l0.00004,0.00081c0.71087,3.21381 1.30813,5.90997 1.38816,6.09524l0,0c0.001,0.0023 0.00908,0.02304 0.02653,0.04024l0.00028,0.00051c0.01198,0.01181 0.04474,0.04163 0.09493,0.04163c0.06108,0 0.09735,-0.04314 0.11178,-0.06495c0.14345,-0.21222 0.43298,-2.01126 2.15332,-12.58184l0.21132,-1.29821l0,0l0.0063,-0.03924l0,0c1.10446,-6.8567 2.07974,-12.74366 2.16038,-13.17558l-0.00005,0l0.15128,-0.67606l-0.10168,-0.12599l-5.44526,-0.00012z"/>
   </g>
   <g stroke="null" id="svg_35" fill="rgb(0,0,0)">
    <path stroke="null" id="svg_36" d="m171.19393,303.8006l59.05203,0.00038l59.05201,0.00038q0,2.19031 0,4.38059q-59.05201,0.00038 -118.10404,0.0008q0,-2.19106 0,-4.38216"/>
   </g>
  </g>
 </g>
</svg>